<?xml version="1.0" standalone="no"?><!DOCTYPE svg PUBLIC "-//W3C//DTD SVG 1.1//EN" "http://www.w3.org/Graphics/SVG/1.1/DTD/svg11.dtd"><svg t="1768880565391" class="icon" viewBox="0 0 1024 1024" version="1.1" xmlns="http://www.w3.org/2000/svg" p-id="2926" width="256" height="256" xmlns:xlink="http://www.w3.org/1999/xlink"><path d="M938.666667 478.685867v315.4944a52.053333 52.053333 0 0 1-51.2 52.565333h-102.946134a276.650667 276.650667 0 0 0-272.861866-277.640533A276.650667 276.650667 0 0 0 238.933333 846.7456H137.147733a52.053333 52.053333 0 0 1-51.2-52.599467v-315.460266a52.053333 52.053333 0 0 1 51.2-52.565334H887.466667a52.053333 52.053333 0 0 1 51.2 52.565334zM920.951467 320.853333H102.4a17.3056 17.3056 0 0 1-17.066667-17.544533v-17.442133a17.3056 17.3056 0 0 1 17.066667-17.544534h818.551467a17.3056 17.3056 0 0 1 17.066666 17.544534v17.544533a17.3056 17.3056 0 0 1-17.066666 17.442133zM537.941333 426.0864h-51.2V320.853333h51.2v105.1648z m162.030934 0h-51.2V320.853333h51.2v105.1648z m161.9968 0h-51.2V320.853333h51.2v105.1648z m-486.024534 0h-51.2V320.853333h51.2v105.1648z m-161.9968 0h-51.2V320.853333h51.2v105.1648z" fill="#4F8AFE" p-id="2927"></path></svg>